<?xml version="1.0" encoding="UTF-8"?>
<!DOCTYPE svg PUBLIC "-//W3C//DTD SVG 1.1//EN" "http://www.w3.org/Graphics/SVG/1.1/DTD/svg11.dtd">
<svg xmlns="http://www.w3.org/2000/svg" version="1.1" width="500px" height="500px" style="shape-rendering:geometricPrecision; text-rendering:geometricPrecision; image-rendering:optimizeQuality; fill-rule:evenodd; clip-rule:evenodd" xmlns:xlink="http://www.w3.org/1999/xlink">
<g><path style="opacity:1" fill="#fefefe" d="M -0.5,-0.5 C 77.8333,-0.5 156.167,-0.5 234.5,-0.5C 162.893,8.9392 113.06,46.9392 85,113.5C 71.6765,151.899 71.0098,190.565 83,229.5C 97.1537,273.655 116.487,315.322 141,354.5C 173.429,405.358 209.262,453.692 248.5,499.5C 165.5,499.5 82.5,499.5 -0.5,499.5C -0.5,332.833 -0.5,166.167 -0.5,-0.5 Z"/></g>
<g><path style="opacity:1" fill="#3c82f6" d="M 234.5,-0.5 C 242.833,-0.5 251.167,-0.5 259.5,-0.5C 319.742,4.86366 366.242,32.8637 399,83.5C 424.811,128.587 430.811,176.254 417,226.5C 403.398,270.368 384.398,311.701 360,350.5C 326.804,402.863 289.971,452.529 249.5,499.5C 249.167,499.5 248.833,499.5 248.5,499.5C 209.262,453.692 173.429,405.358 141,354.5C 116.487,315.322 97.1537,273.655 83,229.5C 71.0098,190.565 71.6765,151.899 85,113.5C 113.06,46.9392 162.893,8.9392 234.5,-0.5 Z"/></g>
<g><path style="opacity:1" fill="#fefefe" d="M 259.5,-0.5 C 339.5,-0.5 419.5,-0.5 499.5,-0.5C 499.5,166.167 499.5,332.833 499.5,499.5C 416.167,499.5 332.833,499.5 249.5,499.5C 289.971,452.529 326.804,402.863 360,350.5C 384.398,311.701 403.398,270.368 417,226.5C 430.811,176.254 424.811,128.587 399,83.5C 366.242,32.8637 319.742,4.86366 259.5,-0.5 Z"/></g>
<g><path style="opacity:1" fill="#fdfefe" d="M 236.5,65.5 C 290.173,63.0752 328.34,86.0752 351,134.5C 364.45,174.468 358.45,211.134 333,244.5C 297.899,281.733 256.066,291.899 207.5,275C 158.481,250.814 136.647,211.314 142,156.5C 149.98,118.349 171.48,90.8492 206.5,74C 216.451,70.5163 226.451,67.683 236.5,65.5 Z"/></g>
<g><path style="opacity:1" fill="#3c82f6" d="M 272.5,95.5 C 283.838,95.3335 295.172,95.5001 306.5,96C 309.167,98.6667 309.167,101.333 306.5,104C 295.167,104.667 283.833,104.667 272.5,104C 269.885,101.093 269.885,98.2598 272.5,95.5 Z"/></g>
<g><path style="opacity:1" fill="#3b81f6" d="M 286.5,111.5 C 288.5,111.5 290.5,111.5 292.5,111.5C 292.5,117.5 292.5,123.5 292.5,129.5C 290.5,129.5 288.5,129.5 286.5,129.5C 286.5,123.5 286.5,117.5 286.5,111.5 Z"/></g>
<g><path style="opacity:1" fill="#3b82f6" d="M 231.5,118.5 C 231.5,132.833 231.5,147.167 231.5,161.5C 223.167,161.5 214.833,161.5 206.5,161.5C 206.333,146.83 206.5,132.163 207,117.5C 207.833,116.667 208.667,115.833 209.5,115C 216.167,114.333 222.833,114.333 229.5,115C 230.823,115.816 231.489,116.983 231.5,118.5 Z"/></g>
<g><path style="opacity:1" fill="#94bafa" d="M 231.5,118.5 C 232.496,132.99 232.829,147.657 232.5,162.5C 223.651,162.826 214.984,162.493 206.5,161.5C 214.833,161.5 223.167,161.5 231.5,161.5C 231.5,147.167 231.5,132.833 231.5,118.5 Z"/></g>
<g><path style="opacity:1" fill="#4084f6" d="M 199.5,136.5 C 199.5,144.833 199.5,153.167 199.5,161.5C 197.901,161.232 196.568,161.566 195.5,162.5C 192.876,164.198 192.876,166.031 195.5,168C 211.5,168.667 227.5,168.667 243.5,168C 245.334,163.325 243.667,161.492 238.5,162.5C 238.5,153.833 238.5,145.167 238.5,136.5C 263.167,136.5 287.833,136.5 312.5,136.5C 314.422,160.816 316.088,185.149 317.5,209.5C 317.5,210.5 317.5,211.5 317.5,212.5C 272.167,212.5 226.833,212.5 181.5,212.5C 183.371,187.18 185.037,161.846 186.5,136.5C 190.833,136.5 195.167,136.5 199.5,136.5 Z"/></g>
<g><path style="opacity:1" fill="#83aff9" d="M 199.5,136.5 C 200.493,144.984 200.826,153.651 200.5,162.5C 198.833,162.5 197.167,162.5 195.5,162.5C 196.568,161.566 197.901,161.232 199.5,161.5C 199.5,153.167 199.5,144.833 199.5,136.5 Z"/></g>
<g><path style="opacity:1" fill="#f7f9fe" d="M 256.5,142.5 C 272.17,142.333 287.837,142.5 303.5,143C 304,143.5 304.5,144 305,144.5C 305.8,152.216 305.633,159.883 304.5,167.5C 288.177,168.666 271.844,168.833 255.5,168C 254.353,160.246 254.186,152.413 255,144.5C 255.717,143.956 256.217,143.289 256.5,142.5 Z"/></g>
<g><path style="opacity:1" fill="#95baf9" d="M 261.5,149.5 C 261.5,153.5 261.5,157.5 261.5,161.5C 273.833,161.5 286.167,161.5 298.5,161.5C 298.5,157.5 298.5,153.5 298.5,149.5C 299.485,153.634 299.818,157.968 299.5,162.5C 286.5,162.5 273.5,162.5 260.5,162.5C 260.182,157.968 260.515,153.634 261.5,149.5 Z"/></g>
<g><path style="opacity:1" fill="#3b81f6" d="M 261.5,149.5 C 273.833,149.5 286.167,149.5 298.5,149.5C 298.5,153.5 298.5,157.5 298.5,161.5C 286.167,161.5 273.833,161.5 261.5,161.5C 261.5,157.5 261.5,153.5 261.5,149.5 Z"/></g>
<g><path style="opacity:1" fill="#f7f9fe" d="M 195.5,174.5 C 211.503,174.333 227.503,174.5 243.5,175C 244.652,185.09 244.819,195.256 244,205.5C 227.907,206.658 211.741,206.824 195.5,206C 195,205.5 194.5,205 194,204.5C 193.333,195.167 193.333,185.833 194,176.5C 194.717,175.956 195.217,175.289 195.5,174.5 Z"/></g>
<g><path style="opacity:1" fill="#eff4fe" d="M 256.5,174.5 C 259.518,174.335 262.518,174.502 265.5,175C 268.167,177 268.167,179 265.5,181C 262.5,181.667 259.5,181.667 256.5,181C 253.939,178.844 253.939,176.677 256.5,174.5 Z"/></g>
<g><path style="opacity:1" fill="#eff4fe" d="M 275.5,174.5 C 278.518,174.335 281.518,174.502 284.5,175C 287.167,177 287.167,179 284.5,181C 281.5,181.667 278.5,181.667 275.5,181C 272.939,178.844 272.939,176.677 275.5,174.5 Z"/></g>
<g><path style="opacity:1" fill="#eff4fe" d="M 294.5,174.5 C 297.518,174.335 300.518,174.502 303.5,175C 306.167,177 306.167,179 303.5,181C 300.5,181.667 297.5,181.667 294.5,181C 291.939,178.844 291.939,176.677 294.5,174.5 Z"/></g>
<g><path style="opacity:1" fill="#3e83f6" d="M 200.5,181.5 C 213.167,181.5 225.833,181.5 238.5,181.5C 238.5,187.833 238.5,194.167 238.5,200.5C 225.833,200.5 213.167,200.5 200.5,200.5C 200.5,194.167 200.5,187.833 200.5,181.5 Z"/></g>
<g><path style="opacity:1" fill="#f6f9fe" d="M 255.5,187.5 C 258.85,187.335 262.183,187.502 265.5,188C 267.211,189.133 267.711,190.633 267,192.5C 263.256,193.626 259.423,193.793 255.5,193C 254.248,191.172 254.248,189.339 255.5,187.5 Z"/></g>
<g><path style="opacity:1" fill="#f8fafe" d="M 275.5,187.5 C 278.518,187.335 281.518,187.502 284.5,188C 286.211,189.133 286.711,190.633 286,192.5C 282.256,193.626 278.423,193.793 274.5,193C 273.243,190.924 273.576,189.09 275.5,187.5 Z"/></g>
<g><path style="opacity:1" fill="#f9fafe" d="M 294.5,187.5 C 297.518,187.335 300.518,187.502 303.5,188C 305.211,189.133 305.711,190.633 305,192.5C 301.256,193.626 297.423,193.793 293.5,193C 292.243,190.924 292.576,189.09 294.5,187.5 Z"/></g>
<g><path style="opacity:1" fill="#f9fbfe" d="M 255.5,200.5 C 258.85,200.335 262.183,200.502 265.5,201C 268.167,202.667 268.167,204.333 265.5,206C 262.167,206.667 258.833,206.667 255.5,206C 254.248,204.172 254.248,202.339 255.5,200.5 Z"/></g>
<g><path style="opacity:1" fill="#f4f7fe" d="M 274.5,200.5 C 278.182,200.335 281.848,200.501 285.5,201C 286.554,202.388 286.72,203.888 286,205.5C 282.256,206.626 278.423,206.793 274.5,206C 273.248,204.172 273.248,202.339 274.5,200.5 Z"/></g>
<g><path style="opacity:1" fill="#f4f7fe" d="M 293.5,200.5 C 297.182,200.335 300.848,200.501 304.5,201C 305.554,202.388 305.72,203.888 305,205.5C 301.256,206.626 297.423,206.793 293.5,206C 292.248,204.172 292.248,202.339 293.5,200.5 Z"/></g>
<g><path style="opacity:1" fill="#9ec0fa" d="M 317.5,209.5 C 318.434,210.568 318.768,211.901 318.5,213.5C 272.664,213.832 226.997,213.499 181.5,212.5C 226.833,212.5 272.167,212.5 317.5,212.5C 317.5,211.5 317.5,210.5 317.5,209.5 Z"/></g>
<g><path style="opacity:1" fill="#3b82f6" d="M 174.5,219.5 C 224.5,219.5 274.5,219.5 324.5,219.5C 324.5,227.833 324.5,236.167 324.5,244.5C 274.5,244.5 224.5,244.5 174.5,244.5C 174.5,236.167 174.5,227.833 174.5,219.5 Z"/></g>
<g><path style="opacity:1" fill="#f9fbfe" d="M 238.5,308.5 C 268.28,305.154 288.113,317.487 298,345.5C 302.684,376.652 290.184,397.152 260.5,407C 228.246,410.633 208.079,396.799 200,365.5C 198.44,336.583 211.274,317.583 238.5,308.5 Z"/></g>
<g><path style="opacity:1" fill="#3e83f6" d="M 239.5,317.5 C 263.479,314.73 279.979,324.397 289,346.5C 293.485,369.364 285.318,385.864 264.5,396C 247.021,402.004 231.854,398.504 219,385.5C 203.692,364.364 205.192,344.531 223.5,326C 228.768,322.868 234.101,320.035 239.5,317.5 Z"/></g>
<g><path style="opacity:1" fill="#fafbfe" d="M 260.5,333.5 C 260.5,336.167 260.5,338.833 260.5,341.5C 255.305,341.179 250.305,341.513 245.5,342.5C 241.864,345.524 241.531,349.024 244.5,353C 260.68,351.509 267.513,358.676 265,374.5C 262.909,378.423 259.742,381.089 255.5,382.5C 254.534,384.396 254.201,386.396 254.5,388.5C 251.5,388.5 248.5,388.5 245.5,388.5C 245.5,386.5 245.5,384.5 245.5,382.5C 243.167,382.5 240.833,382.5 238.5,382.5C 238.5,379.5 238.5,376.5 238.5,373.5C 243.844,373.666 249.177,373.499 254.5,373C 257.167,369.667 257.167,366.333 254.5,363C 237.244,363.962 230.744,356.128 235,339.5C 237.436,335.55 240.936,333.55 245.5,333.5C 245.5,331.5 245.5,329.5 245.5,327.5C 248.5,327.5 251.5,327.5 254.5,327.5C 254.5,329.167 254.5,330.833 254.5,332.5C 256.735,332.205 258.735,332.539 260.5,333.5 Z"/></g>
<g><path style="opacity:1" fill="#9cc0fa" d="M 260.5,333.5 C 261.477,336.287 261.81,339.287 261.5,342.5C 256.167,342.5 250.833,342.5 245.5,342.5C 250.305,341.513 255.305,341.179 260.5,341.5C 260.5,338.833 260.5,336.167 260.5,333.5 Z"/></g>
<g><path style="opacity:1" fill="#95bbfa" d="M 238.5,382.5 C 240.833,382.5 243.167,382.5 245.5,382.5C 245.5,384.5 245.5,386.5 245.5,388.5C 244.549,387.081 244.216,385.415 244.5,383.5C 242.265,383.795 240.265,383.461 238.5,382.5 Z"/></g>
</svg>
