<?xml version="1.0" encoding="UTF-8"?>
<!DOCTYPE svg PUBLIC "-//W3C//DTD SVG 1.1//EN" "http://www.w3.org/Graphics/SVG/1.1/DTD/svg11.dtd">
<svg xmlns="http://www.w3.org/2000/svg" version="1.1" width="500px" height="500px" style="shape-rendering:geometricPrecision; text-rendering:geometricPrecision; image-rendering:optimizeQuality; fill-rule:evenodd; clip-rule:evenodd" xmlns:xlink="http://www.w3.org/1999/xlink">
<g><path style="opacity:1" fill="#3b81f4" d="M 232.5,-0.5 C 243.833,-0.5 255.167,-0.5 266.5,-0.5C 336.094,9.05221 384.928,46.0522 413,110.5C 426.377,147.964 428.043,185.964 418,224.5C 407.265,261.385 392.265,296.385 373,329.5C 356.153,357.875 338.32,385.542 319.5,412.5C 297.672,442.339 274.672,471.339 250.5,499.5C 249.5,499.5 248.5,499.5 247.5,499.5C 200.943,445.736 159.777,388.069 124,326.5C 106.156,295.478 92.1557,262.812 82,228.5C 61.8982,153.163 80.7315,89.663 138.5,38C 166.09,16.0798 197.423,3.24651 232.5,-0.5 Z M 277.5,69.5 C 319.341,83.1804 345.507,111.514 356,154.5C 362.12,202.529 345.286,240.029 305.5,267C 263.859,289.301 223.526,287.301 184.5,261C 143.266,225.906 131.766,182.74 150,131.5C 162.051,105.282 181.217,86.2824 207.5,74.5C 230.375,65.5375 253.708,63.8708 277.5,69.5 Z M 294.5,200.5 C 297.518,200.335 300.518,200.502 303.5,201C 304.554,202.388 304.72,203.888 304,205.5C 300.927,206.617 297.76,206.784 294.5,206C 293.248,204.172 293.248,202.339 294.5,200.5 Z M 275.5,200.5 C 278.518,200.335 281.518,200.502 284.5,201C 285.554,202.388 285.72,203.888 285,205.5C 281.927,206.617 278.76,206.784 275.5,206C 274.248,204.172 274.248,202.339 275.5,200.5 Z M 256.5,200.5 C 259.187,200.336 261.854,200.503 264.5,201C 267.167,202.667 267.167,204.333 264.5,206C 261.833,206.667 259.167,206.667 256.5,206C 253.982,204.19 253.982,202.357 256.5,200.5 Z M 295.5,187.5 C 298.249,187.274 300.916,187.607 303.5,188.5C 304.614,189.723 304.781,191.056 304,192.5C 300.927,193.617 297.76,193.784 294.5,193C 293.243,190.924 293.576,189.09 295.5,187.5 Z M 276.5,187.5 C 279.249,187.274 281.916,187.607 284.5,188.5C 285.614,189.723 285.781,191.056 285,192.5C 281.927,193.617 278.76,193.784 275.5,193C 274.156,190.856 274.49,189.023 276.5,187.5 Z M 257.5,187.5 C 259.857,187.337 262.19,187.503 264.5,188C 266.211,189.133 266.711,190.633 266,192.5C 261.816,194.184 257.983,193.684 254.5,191C 255.365,189.641 256.365,188.474 257.5,187.5 Z M 294.5,175.5 C 297.518,175.335 300.518,175.502 303.5,176C 304.833,177.333 304.833,178.667 303.5,180C 300.5,180.667 297.5,180.667 294.5,180C 293.272,178.51 293.272,177.01 294.5,175.5 Z M 275.5,175.5 C 278.518,175.335 281.518,175.502 284.5,176C 285.833,177.333 285.833,178.667 284.5,180C 281.5,180.667 278.5,180.667 275.5,180C 274.272,178.51 274.272,177.01 275.5,175.5 Z M 255.5,175.5 C 258.85,175.335 262.183,175.502 265.5,176C 266.833,177.333 266.833,178.667 265.5,180C 262.118,180.824 258.784,180.657 255.5,179.5C 254.637,178.274 254.637,176.94 255.5,175.5 Z M 195.5,175.5 C 211.503,175.333 227.503,175.5 243.5,176C 244.651,185.422 244.818,194.922 244,204.5C 243.5,205 243,205.5 242.5,206C 226.833,206.667 211.167,206.667 195.5,206C 194.178,195.833 194.178,185.667 195.5,175.5 Z M 255.5,143.5 C 271.503,143.333 287.503,143.5 303.5,144C 304.126,144.75 304.626,145.584 305,146.5C 305.667,152.833 305.667,159.167 305,165.5C 296.899,166.817 288.566,167.484 280,167.5C 271.833,167.167 263.667,166.833 255.5,166.5C 254.2,158.834 254.2,151.167 255.5,143.5 Z M 242.5,308.5 C 276.197,308.029 295.197,324.529 299.5,358C 297.198,384.965 282.864,401.298 256.5,407C 227.435,408.593 208.935,395.426 201,367.5C 198.357,336.01 212.19,316.344 242.5,308.5 Z M 245.5,327.5 C 248.167,327.5 250.833,327.5 253.5,327.5C 253.5,329.5 253.5,331.5 253.5,333.5C 255.833,333.5 258.167,333.5 260.5,333.5C 260.5,336.167 260.5,338.833 260.5,341.5C 255.156,341.334 249.823,341.501 244.5,342C 240.5,345.667 240.5,349.333 244.5,353C 260.845,352.329 267.345,359.829 264,375.5C 261.712,378.907 258.545,381.24 254.5,382.5C 253.534,384.396 253.201,386.396 253.5,388.5C 250.833,388.5 248.167,388.5 245.5,388.5C 245.5,386.5 245.5,384.5 245.5,382.5C 243.167,382.5 240.833,382.5 238.5,382.5C 238.5,379.833 238.5,377.167 238.5,374.5C 243.844,374.666 249.177,374.499 254.5,374C 258.105,370.685 258.439,367.018 255.5,363C 249.49,363.038 243.824,361.705 238.5,359C 230.345,348.04 232.345,339.54 244.5,333.5C 245.466,331.604 245.799,329.604 245.5,327.5 Z"/></g>
<g><path style="opacity:0.004" fill="#fefffe" d="M 312.5,6.5 C 313.833,7.16667 313.833,7.16667 312.5,6.5 Z"/></g>
<g><path style="opacity:0.004" fill="#fefffe" d="M 471.5,10.5 C 472.833,11.1667 472.833,11.1667 471.5,10.5 Z"/></g>
<g><path style="opacity:0.004" fill="#fefffe" d="M 115.5,11.5 C 116.833,12.1667 116.833,12.1667 115.5,11.5 Z"/></g>
<g><path style="opacity:0.004" fill="#fefffe" d="M 475.5,12.5 C 476.833,13.1667 476.833,13.1667 475.5,12.5 Z"/></g>
<g><path style="opacity:0.004" fill="#fefffe" d="M 409.5,13.5 C 410.833,14.1667 410.833,14.1667 409.5,13.5 Z"/></g>
<g><path style="opacity:0.004" fill="#fefffe" d="M 76.5,22.5 C 77.8333,23.1667 77.8333,23.1667 76.5,22.5 Z"/></g>
<g><path style="opacity:0.004" fill="#fefffe" d="M 137.5,22.5 C 138.833,23.1667 138.833,23.1667 137.5,22.5 Z"/></g>
<g><path style="opacity:0.004" fill="#fefffe" d="M 114.5,39.5 C 115.833,40.1667 115.833,40.1667 114.5,39.5 Z"/></g>
<g><path style="opacity:0.004" fill="#fefffe" d="M 463.5,47.5 C 464.833,48.1667 464.833,48.1667 463.5,47.5 Z"/></g>
<g><path style="opacity:0.004" fill="#fefffe" d="M 98.5,53.5 C 99.8333,54.1667 99.8333,54.1667 98.5,53.5 Z"/></g>
<g><path style="opacity:0.004" fill="#fefffe" d="M 62.5,60.5 C 63.8333,61.1667 63.8333,61.1667 62.5,60.5 Z"/></g>
<g><path style="opacity:0.004" fill="#fefffe" d="M 391.5,61.5 C 392.833,62.1667 392.833,62.1667 391.5,61.5 Z"/></g>
<g><path style="opacity:1" fill="#4880db" d="M 277.5,69.5 C 253.708,63.8708 230.375,65.5375 207.5,74.5C 208.967,71.5374 211.3,69.3707 214.5,68C 216.634,67.8727 218.801,68.0393 221,68.5C 225.405,67.1523 229.905,66.319 234.5,66C 235.399,64.7638 236.566,63.9304 238,63.5C 250.588,63.9428 263.088,65.2762 275.5,67.5C 276.243,68.1818 276.909,68.8485 277.5,69.5 Z"/></g>
<g><path style="opacity:0.004" fill="#fefffe" d="M 434.5,72.5 C 435.833,73.1667 435.833,73.1667 434.5,72.5 Z"/></g>
<g><path style="opacity:1" fill="#4081ec" d="M 273.5,94.5 C 284.172,94.3335 294.839,94.5002 305.5,95C 309.775,97.2116 310.441,100.212 307.5,104C 295.5,104.667 283.5,104.667 271.5,104C 268.705,100.094 269.372,96.9272 273.5,94.5 Z"/></g>
<g><path style="opacity:0.004" fill="#fefffe" d="M 438.5,116.5 C 439.833,117.167 439.833,117.167 438.5,116.5 Z"/></g>
<g><path style="opacity:1" fill="#4480e7" d="M 285.5,110.5 C 288.167,110.5 290.833,110.5 293.5,110.5C 293.5,117.167 293.5,123.833 293.5,130.5C 290.833,130.5 288.167,130.5 285.5,130.5C 285.5,123.833 285.5,117.167 285.5,110.5 Z"/></g>
<g><path style="opacity:1" fill="#3b81f5" d="M 206.5,160.5 C 206.5,147.5 206.5,134.5 206.5,121.5C 208.288,121.785 209.955,121.452 211.5,120.5C 210.675,119.614 209.675,119.281 208.5,119.5C 208.33,118.178 208.663,117.011 209.5,116C 216.656,113.504 223.49,114.004 230,117.5C 230.49,118.793 230.657,120.127 230.5,121.5C 229.167,121.5 227.833,121.5 226.5,121.5C 226.5,122.833 226.5,124.167 226.5,125.5C 227.822,125.67 228.989,125.337 230,124.5C 230.5,136.495 230.667,148.495 230.5,160.5C 222.5,160.5 214.5,160.5 206.5,160.5 Z"/></g>
<g><path style="opacity:1" fill="#4880db" d="M 206.5,160.5 C 214.5,160.5 222.5,160.5 230.5,160.5C 230.667,148.495 230.5,136.495 230,124.5C 228.989,125.337 227.822,125.67 226.5,125.5C 226.5,124.167 226.5,122.833 226.5,121.5C 227.833,121.5 229.167,121.5 230.5,121.5C 230.657,120.127 230.49,118.793 230,117.5C 223.49,114.004 216.656,113.504 209.5,116C 208.663,117.011 208.33,118.178 208.5,119.5C 209.675,119.281 210.675,119.614 211.5,120.5C 209.955,121.452 208.288,121.785 206.5,121.5C 205.725,117.818 207.059,115.318 210.5,114C 216.5,113.333 222.5,113.333 228.5,114C 230,114.833 231.167,116 232,117.5C 232.5,132.496 232.667,147.496 232.5,162.5C 223.435,163.136 214.769,162.47 206.5,160.5 Z"/></g>
<g><path style="opacity:0.004" fill="#fefffe" d="M 35.5,137.5 C 36.8333,138.167 36.8333,138.167 35.5,137.5 Z"/></g>
<g><path style="opacity:0.004" fill="#fefffe" d="M 462.5,159.5 C 463.833,160.167 463.833,160.167 462.5,159.5 Z"/></g>
<g><path style="opacity:0.004" fill="#fefffe" d="M 469.5,163.5 C 470.833,164.167 470.833,164.167 469.5,163.5 Z"/></g>
<g><path style="opacity:0.004" fill="#fefffe" d="M 440.5,188.5 C 441.833,189.167 441.833,189.167 440.5,188.5 Z"/></g>
<g><path style="opacity:0.004" fill="#fefffe" d="M 35.5,197.5 C 36.8333,198.167 36.8333,198.167 35.5,197.5 Z"/></g>
<g><path style="opacity:0.004" fill="#fefffe" d="M 69.5,199.5 C 70.8333,200.167 70.8333,200.167 69.5,199.5 Z"/></g>
<g><path style="opacity:1" fill="#3d81f2" d="M 317.5,207.5 C 317.5,209.167 317.5,210.833 317.5,212.5C 271.821,213.162 226.488,212.495 181.5,210.5C 182.963,185.82 184.629,161.153 186.5,136.5C 191.167,136.5 195.833,136.5 200.5,136.5C 200.5,145.167 200.5,153.833 200.5,162.5C 198.801,162.34 197.134,162.506 195.5,163C 194.167,164.333 194.167,165.667 195.5,167C 211.5,167.667 227.5,167.667 243.5,167C 244.711,165.887 244.711,164.72 243.5,163.5C 241.659,162.77 239.825,162.103 238,161.5C 237.5,153.173 237.334,144.84 237.5,136.5C 262.516,136.003 287.516,136.003 312.5,136.5C 314.706,160.126 316.373,183.793 317.5,207.5 Z M 294.5,200.5 C 293.248,202.339 293.248,204.172 294.5,206C 297.76,206.784 300.927,206.617 304,205.5C 304.72,203.888 304.554,202.388 303.5,201C 300.518,200.502 297.518,200.335 294.5,200.5 Z M 275.5,200.5 C 274.248,202.339 274.248,204.172 275.5,206C 278.76,206.784 281.927,206.617 285,205.5C 285.72,203.888 285.554,202.388 284.5,201C 281.518,200.502 278.518,200.335 275.5,200.5 Z M 256.5,200.5 C 253.982,202.357 253.982,204.19 256.5,206C 259.167,206.667 261.833,206.667 264.5,206C 267.167,204.333 267.167,202.667 264.5,201C 261.854,200.503 259.187,200.336 256.5,200.5 Z M 295.5,187.5 C 293.576,189.09 293.243,190.924 294.5,193C 297.76,193.784 300.927,193.617 304,192.5C 304.781,191.056 304.614,189.723 303.5,188.5C 300.916,187.607 298.249,187.274 295.5,187.5 Z M 276.5,187.5 C 274.49,189.023 274.156,190.856 275.5,193C 278.76,193.784 281.927,193.617 285,192.5C 285.781,191.056 285.614,189.723 284.5,188.5C 281.916,187.607 279.249,187.274 276.5,187.5 Z M 257.5,187.5 C 256.365,188.474 255.365,189.641 254.5,191C 257.983,193.684 261.816,194.184 266,192.5C 266.711,190.633 266.211,189.133 264.5,188C 262.19,187.503 259.857,187.337 257.5,187.5 Z M 294.5,175.5 C 293.272,177.01 293.272,178.51 294.5,180C 297.5,180.667 300.5,180.667 303.5,180C 304.833,178.667 304.833,177.333 303.5,176C 300.518,175.502 297.518,175.335 294.5,175.5 Z M 275.5,175.5 C 274.272,177.01 274.272,178.51 275.5,180C 278.5,180.667 281.5,180.667 284.5,180C 285.833,178.667 285.833,177.333 284.5,176C 281.518,175.502 278.518,175.335 275.5,175.5 Z M 255.5,175.5 C 254.637,176.94 254.637,178.274 255.5,179.5C 258.784,180.657 262.118,180.824 265.5,180C 266.833,178.667 266.833,177.333 265.5,176C 262.183,175.502 258.85,175.335 255.5,175.5 Z M 195.5,175.5 C 194.178,185.667 194.178,195.833 195.5,206C 211.167,206.667 226.833,206.667 242.5,206C 243,205.5 243.5,205 244,204.5C 244.818,194.922 244.651,185.422 243.5,176C 227.503,175.5 211.503,175.333 195.5,175.5 Z M 255.5,143.5 C 254.2,151.167 254.2,158.834 255.5,166.5C 263.667,166.833 271.833,167.167 280,167.5C 288.566,167.484 296.899,166.817 305,165.5C 305.667,159.167 305.667,152.833 305,146.5C 304.626,145.584 304.126,144.75 303.5,144C 287.503,143.5 271.503,143.333 255.5,143.5 Z"/></g>
<g><path style="opacity:0.74" fill="#537dc5" d="M 238.5,181.5 C 225.833,181.5 213.167,181.5 200.5,181.5C 200.5,187.5 200.5,193.5 200.5,199.5C 213.167,199.5 225.833,199.5 238.5,199.5C 225.677,200.495 212.677,200.829 199.5,200.5C 199.5,193.833 199.5,187.167 199.5,180.5C 212.677,180.171 225.677,180.505 238.5,181.5 Z"/></g>
<g><path style="opacity:1" fill="#3c81f4" d="M 238.5,181.5 C 239.444,187.474 239.444,193.474 238.5,199.5C 225.833,199.5 213.167,199.5 200.5,199.5C 200.5,193.5 200.5,187.5 200.5,181.5C 213.167,181.5 225.833,181.5 238.5,181.5 Z"/></g>
<g><path style="opacity:1" fill="#4e81d7" d="M 260.5,148.5 C 273.5,148.5 286.5,148.5 299.5,148.5C 299.5,153.167 299.5,157.833 299.5,162.5C 286.5,162.5 273.5,162.5 260.5,162.5C 260.5,157.833 260.5,153.167 260.5,148.5 Z"/></g>
<g><path style="opacity:1" fill="#3b81f6" d="M 261.5,150.5 C 273.171,150.333 284.838,150.5 296.5,151C 298.344,153.804 299.011,156.97 298.5,160.5C 286.167,160.5 273.833,160.5 261.5,160.5C 261.5,157.167 261.5,153.833 261.5,150.5 Z"/></g>
<g><path style="opacity:0.482" fill="#497bcf" d="M 317.5,207.5 C 318.461,209.265 318.795,211.265 318.5,213.5C 272.5,213.5 226.5,213.5 180.5,213.5C 180.263,212.209 180.596,211.209 181.5,210.5C 226.488,212.495 271.821,213.162 317.5,212.5C 317.5,210.833 317.5,209.167 317.5,207.5 Z"/></g>
<g><path style="opacity:1" fill="#3b81f5" d="M 325.5,226.5 C 324.511,231.975 324.178,237.642 324.5,243.5C 321.681,243.131 318.848,242.798 316,242.5C 268.881,244.455 221.715,245.122 174.5,244.5C 174.5,236.167 174.5,227.833 174.5,219.5C 224.833,219.5 275.167,219.5 325.5,219.5C 325.5,221.833 325.5,224.167 325.5,226.5 Z"/></g>
<g><path style="opacity:0.004" fill="#fefffe" d="M 493.5,239.5 C 494.833,240.167 494.833,240.167 493.5,239.5 Z"/></g>
<g><path style="opacity:0.237" fill="#497fd4" d="M 325.5,226.5 C 325.81,232.758 325.476,238.924 324.5,245C 274.332,245.832 224.332,245.665 174.5,244.5C 221.715,245.122 268.881,244.455 316,242.5C 318.848,242.798 321.681,243.131 324.5,243.5C 324.178,237.642 324.511,231.975 325.5,226.5 Z"/></g>
<g><path style="opacity:0.004" fill="#fefffe" d="M 487.5,255.5 C 488.833,256.167 488.833,256.167 487.5,255.5 Z"/></g>
<g><path style="opacity:0.004" fill="#fefffe" d="M 485.5,280.5 C 486.833,281.167 486.833,281.167 485.5,280.5 Z"/></g>
<g><path style="opacity:0.004" fill="#fefffe" d="M 80.5,281.5 C 81.8333,282.167 81.8333,282.167 80.5,281.5 Z"/></g>
<g><path style="opacity:0.004" fill="#fefffe" d="M 459.5,281.5 C 460.833,282.167 460.833,282.167 459.5,281.5 Z"/></g>
<g><path style="opacity:0.004" fill="#fefffe" d="M 16.5,305.5 C 17.8333,306.167 17.8333,306.167 16.5,305.5 Z"/></g>
<g><path style="opacity:0.004" fill="#fefffe" d="M 18.5,307.5 C 19.8333,308.167 19.8333,308.167 18.5,307.5 Z"/></g>
<g><path style="opacity:0.004" fill="#fefffe" d="M 476.5,307.5 C 477.833,308.167 477.833,308.167 476.5,307.5 Z"/></g>
<g><path style="opacity:0.004" fill="#fefffe" d="M 106.5,309.5 C 107.833,310.167 107.833,310.167 106.5,309.5 Z"/></g>
<g><path style="opacity:0.004" fill="#fefffe" d="M 115.5,325.5 C 116.833,326.167 116.833,326.167 115.5,325.5 Z"/></g>
<g><path style="opacity:1" fill="#3d81f2" d="M 243.5,316.5 C 276.457,316.956 291.957,333.623 290,366.5C 285.202,384.988 273.369,395.821 254.5,399C 230.235,400.055 215.068,388.888 209,365.5C 206.747,339.303 218.247,322.969 243.5,316.5 Z M 245.5,327.5 C 245.799,329.604 245.466,331.604 244.5,333.5C 232.345,339.54 230.345,348.04 238.5,359C 243.824,361.705 249.49,363.038 255.5,363C 258.439,367.018 258.105,370.685 254.5,374C 249.177,374.499 243.844,374.666 238.5,374.5C 238.5,377.167 238.5,379.833 238.5,382.5C 240.833,382.5 243.167,382.5 245.5,382.5C 245.5,384.5 245.5,386.5 245.5,388.5C 248.167,388.5 250.833,388.5 253.5,388.5C 253.201,386.396 253.534,384.396 254.5,382.5C 258.545,381.24 261.712,378.907 264,375.5C 267.345,359.829 260.845,352.329 244.5,353C 240.5,349.333 240.5,345.667 244.5,342C 249.823,341.501 255.156,341.334 260.5,341.5C 260.5,338.833 260.5,336.167 260.5,333.5C 258.167,333.5 255.833,333.5 253.5,333.5C 253.5,331.5 253.5,329.5 253.5,327.5C 250.833,327.5 248.167,327.5 245.5,327.5 Z"/></g>
<g><path style="opacity:0.004" fill="#fefffe" d="M 486.5,341.5 C 487.833,342.167 487.833,342.167 486.5,341.5 Z"/></g>
<g><path style="opacity:0.004" fill="#fefffe" d="M 34.5,349.5 C 35.8333,350.167 35.8333,350.167 34.5,349.5 Z"/></g>
<g><path style="opacity:0.004" fill="#fefffe" d="M 387.5,375.5 C 388.833,376.167 388.833,376.167 387.5,375.5 Z"/></g>
<g><path style="opacity:0.004" fill="#fefffe" d="M 319.5,412.5 C 320.833,413.167 320.833,413.167 319.5,412.5 Z"/></g>
<g><path style="opacity:0.004" fill="#fefffe" d="M 416.5,429.5 C 417.833,430.167 417.833,430.167 416.5,429.5 Z"/></g>
<g><path style="opacity:0.004" fill="#fefffe" d="M 120.5,431.5 C 121.833,432.167 121.833,432.167 120.5,431.5 Z"/></g>
<g><path style="opacity:0.004" fill="#fefffe" d="M 104.5,445.5 C 105.833,446.167 105.833,446.167 104.5,445.5 Z"/></g>
<g><path style="opacity:0.004" fill="#fefffe" d="M 342.5,447.5 C 343.833,448.167 343.833,448.167 342.5,447.5 Z"/></g>
<g><path style="opacity:0.004" fill="#fefffe" d="M 45.5,455.5 C 46.8333,456.167 46.8333,456.167 45.5,455.5 Z"/></g>
<g><path style="opacity:0.004" fill="#fefffe" d="M 92.5,470.5 C 93.8333,471.167 93.8333,471.167 92.5,470.5 Z"/></g>
<g><path style="opacity:0.004" fill="#fefffe" d="M 76.5,476.5 C 77.8333,477.167 77.8333,477.167 76.5,476.5 Z"/></g>
</svg>
