<?xml version="1.0" encoding="UTF-8"?>
<!DOCTYPE svg PUBLIC "-//W3C//DTD SVG 1.1//EN" "http://www.w3.org/Graphics/SVG/1.1/DTD/svg11.dtd">
<svg xmlns="http://www.w3.org/2000/svg" version="1.1" width="500px" height="500px" style="shape-rendering:geometricPrecision; text-rendering:geometricPrecision; image-rendering:optimizeQuality; fill-rule:evenodd; clip-rule:evenodd" xmlns:xlink="http://www.w3.org/1999/xlink">
<g><path style="opacity:1" fill="#fefefe" d="M -0.5,-0.5 C 166.167,-0.5 332.833,-0.5 499.5,-0.5C 499.5,166.167 499.5,332.833 499.5,499.5C 332.833,499.5 166.167,499.5 -0.5,499.5C -0.5,332.833 -0.5,166.167 -0.5,-0.5 Z"/></g>
<g><path style="opacity:1" fill="#3c82f6" d="M 255.5,81.5 C 287.972,80.3222 313.805,92.6556 333,118.5C 349.194,144.07 351.86,171.07 341,199.5C 322.226,244.91 296.226,285.577 263,321.5C 236.765,291.92 214.432,259.586 196,224.5C 189.412,210.735 184.412,196.402 181,181.5C 175.524,140.618 190.691,110.118 226.5,90C 235.885,85.7423 245.552,82.9089 255.5,81.5 Z"/></g>
<g><path style="opacity:1" fill="#fcfcfe" d="M 253.5,113.5 C 285.566,111.439 306.066,125.773 315,156.5C 317.673,187.018 304.506,206.851 275.5,216C 248.669,220.833 228.836,211.333 216,187.5C 204.875,150.749 217.375,126.082 253.5,113.5 Z"/></g>
<g><path style="opacity:1" fill="#4788f6" d="M 274.5,127.5 C 279.844,127.334 285.177,127.501 290.5,128C 291.833,129.333 291.833,130.667 290.5,132C 285.167,132.667 279.833,132.667 274.5,132C 273.272,130.51 273.272,129.01 274.5,127.5 Z"/></g>
<g><path style="opacity:1" fill="#548ef6" d="M 281.5,135.5 C 282.5,135.5 283.5,135.5 284.5,135.5C 284.5,138.5 284.5,141.5 284.5,144.5C 283.5,144.5 282.5,144.5 281.5,144.5C 281.5,141.5 281.5,138.5 281.5,135.5 Z"/></g>
<g><path style="opacity:1" fill="#4b89f6" d="M 244.5,136.5 C 247.518,136.335 250.518,136.502 253.5,137C 254,137.5 254.5,138 255,138.5C 255.5,145.492 255.666,152.492 255.5,159.5C 251.167,159.5 246.833,159.5 242.5,159.5C 242.334,152.492 242.5,145.492 243,138.5C 243.717,137.956 244.217,137.289 244.5,136.5 Z"/></g>
<g><path style="opacity:1" fill="#4687f6" d="M 295.5,179.5 C 295.5,180.833 295.5,182.167 295.5,183.5C 274.167,183.5 252.833,183.5 231.5,183.5C 231.5,181.833 231.5,180.167 231.5,178.5C 231.759,168.136 232.426,157.802 233.5,147.5C 235.5,147.5 237.5,147.5 239.5,147.5C 240.198,152.685 239.198,157.352 236.5,161.5C 244.472,162.498 252.472,162.831 260.5,162.5C 258.865,157.679 258.198,152.679 258.5,147.5C 270.167,147.5 281.833,147.5 293.5,147.5C 294.524,158.141 295.19,168.808 295.5,179.5 Z"/></g>
<g><path style="opacity:1" fill="#f4f8fe" d="M 266.5,150.5 C 274.174,150.334 281.841,150.5 289.5,151C 290.46,154.73 290.793,158.563 290.5,162.5C 282.167,162.5 273.833,162.5 265.5,162.5C 265.237,158.4 265.57,154.4 266.5,150.5 Z"/></g>
<g><path style="opacity:1" fill="#4586f6" d="M 268.5,153.5 C 274.833,153.5 281.167,153.5 287.5,153.5C 287.5,155.5 287.5,157.5 287.5,159.5C 281.167,159.5 274.833,159.5 268.5,159.5C 268.5,157.5 268.5,155.5 268.5,153.5 Z"/></g>
<g><path style="opacity:1" fill="#eaf1fe" d="M 237.5,165.5 C 245.174,165.334 252.841,165.5 260.5,166C 261.635,170.748 261.802,175.581 261,180.5C 253.246,181.647 245.413,181.814 237.5,181C 236.19,175.834 236.19,170.667 237.5,165.5 Z"/></g>
<g><path style="opacity:1" fill="#d3e1fd" d="M 266.5,165.5 C 268.167,165.5 269.833,165.5 271.5,165.5C 271.5,166.833 271.5,168.167 271.5,169.5C 269.801,169.66 268.134,169.494 266.5,169C 265.316,167.855 265.316,166.688 266.5,165.5 Z"/></g>
<g><path style="opacity:1" fill="#fefffe" d="M 275.5,166.5 C 277.288,166.215 278.955,166.548 280.5,167.5C 279.667,167.833 278.833,168.167 278,168.5C 276.624,168.316 275.791,167.649 275.5,166.5 Z"/></g>
<g><path style="opacity:1" fill="#d3e1fd" d="M 284.5,165.5 C 286.977,165.051 288.977,165.717 290.5,167.5C 288.977,169.283 286.977,169.949 284.5,169.5C 284.5,168.167 284.5,166.833 284.5,165.5 Z"/></g>
<g><path style="opacity:1" fill="#f4f7fe" d="M 265.5,172.5 C 267.604,172.201 269.604,172.534 271.5,173.5C 270.5,173.833 269.5,174.167 268.5,174.5C 266.97,174.36 265.97,173.693 265.5,172.5 Z"/></g>
<g><path style="opacity:1" fill="#fefffe" d="M 275.5,172.5 C 277.288,172.215 278.955,172.548 280.5,173.5C 279.667,173.833 278.833,174.167 278,174.5C 276.624,174.316 275.791,173.649 275.5,172.5 Z"/></g>
<g><path style="opacity:1" fill="#d3e1fd" d="M 284.5,171.5 C 286.977,171.051 288.977,171.717 290.5,173.5C 288.977,175.283 286.977,175.949 284.5,175.5C 284.5,174.167 284.5,172.833 284.5,171.5 Z"/></g>
<g><path style="opacity:1" fill="#85b0f9" d="M 239.5,168.5 C 245.833,168.5 252.167,168.5 258.5,168.5C 258.5,171.833 258.5,175.167 258.5,178.5C 252.167,178.5 245.833,178.5 239.5,178.5C 239.5,175.167 239.5,171.833 239.5,168.5 Z"/></g>
<g><path style="opacity:1" fill="#3b81f6" d="M 240.5,169.5 C 246.167,169.5 251.833,169.5 257.5,169.5C 257.5,172.167 257.5,174.833 257.5,177.5C 251.833,177.5 246.167,177.5 240.5,177.5C 240.5,174.833 240.5,172.167 240.5,169.5 Z"/></g>
<g><path style="opacity:1" fill="#eaf1fe" d="M 265.5,178.5 C 267.5,178.5 269.5,178.5 271.5,178.5C 271.5,179.5 271.5,180.5 271.5,181.5C 269.801,181.66 268.134,181.494 266.5,181C 265.748,180.329 265.414,179.496 265.5,178.5 Z"/></g>
<g><path style="opacity:1" fill="#f1f6fe" d="M 275.5,178.5 C 277.167,178.5 278.833,178.5 280.5,178.5C 280.5,179.5 280.5,180.5 280.5,181.5C 278.833,181.5 277.167,181.5 275.5,181.5C 275.5,180.5 275.5,179.5 275.5,178.5 Z"/></g>
<g><path style="opacity:1" fill="#e9f0fe" d="M 284.5,178.5 C 286.604,178.201 288.604,178.534 290.5,179.5C 288.977,181.283 286.977,181.949 284.5,181.5C 284.5,180.5 284.5,179.5 284.5,178.5 Z"/></g>
<g><path style="opacity:1" fill="#6fa3f8" d="M 231.5,178.5 C 231.5,180.167 231.5,181.833 231.5,183.5C 252.833,183.5 274.167,183.5 295.5,183.5C 295.5,182.167 295.5,180.833 295.5,179.5C 296.451,180.919 296.784,182.585 296.5,184.5C 274.5,184.5 252.5,184.5 230.5,184.5C 230.205,182.265 230.539,180.265 231.5,178.5 Z"/></g>
<g><path style="opacity:1" fill="#3b82f6" d="M 227.5,187.5 C 251.5,187.5 275.5,187.5 299.5,187.5C 299.5,191.5 299.5,195.5 299.5,199.5C 275.5,199.5 251.5,199.5 227.5,199.5C 227.5,195.5 227.5,191.5 227.5,187.5 Z"/></g>
<g><path style="opacity:1" fill="#f2f6fe" d="M 258.5,229.5 C 277.975,229.475 287.475,239.141 287,258.5C 282.331,273.429 272.164,279.595 256.5,277C 240.147,269.278 235.647,257.111 243,240.5C 247.127,235.202 252.294,231.535 258.5,229.5 Z"/></g>
<g><path style="opacity:1" fill="#4084f6" d="M 258.5,234.5 C 276.151,233.65 283.984,241.983 282,259.5C 274.907,273.752 264.407,276.919 250.5,269C 239.322,254.071 241.988,242.571 258.5,234.5 Z"/></g>
<g><path style="opacity:1" fill="#f1f6fe" d="M 268.5,241.5 C 268.5,242.833 268.5,244.167 268.5,245.5C 265.941,245.198 263.607,245.532 261.5,246.5C 260.549,247.919 260.216,249.585 260.5,251.5C 268.161,250.663 271.661,253.996 271,261.5C 270.241,263.635 268.741,264.968 266.5,265.5C 265.614,266.325 265.281,267.325 265.5,268.5C 264.167,268.5 262.833,268.5 261.5,268.5C 261.5,267.5 261.5,266.5 261.5,265.5C 260.5,265.5 259.5,265.5 258.5,265.5C 258.5,264.167 258.5,262.833 258.5,261.5C 261.385,261.806 264.052,261.473 266.5,260.5C 266.5,259.167 266.5,257.833 266.5,256.5C 258.342,257.177 254.842,253.51 256,245.5C 258.503,243.52 260.336,241.187 261.5,238.5C 262.833,238.5 264.167,238.5 265.5,238.5C 265.5,239.5 265.5,240.5 265.5,241.5C 266.5,241.5 267.5,241.5 268.5,241.5 Z"/></g>
<g><path style="opacity:1" fill="#95bbfa" d="M 268.5,241.5 C 269.451,242.919 269.784,244.585 269.5,246.5C 266.833,246.5 264.167,246.5 261.5,246.5C 263.607,245.532 265.941,245.198 268.5,245.5C 268.5,244.167 268.5,242.833 268.5,241.5 Z"/></g>
<g><path style="opacity:1" fill="#79a8f8" d="M 266.5,260.5 C 264.052,261.473 261.385,261.806 258.5,261.5C 258.5,262.833 258.5,264.167 258.5,265.5C 259.5,265.5 260.5,265.5 261.5,265.5C 261.5,266.5 261.5,267.5 261.5,268.5C 260.533,267.194 259.199,266.527 257.5,266.5C 257.5,264.5 257.5,262.5 257.5,260.5C 260.5,260.5 263.5,260.5 266.5,260.5 Z"/></g>
</svg>
